HIERARCHY
ROOT SpineBase
{
  OFFSET 0.000000 0.000000 0.000000
  CHANNELS 6 Xposition Yposition Zposition Zrotation Xrotation Yrotation
  JOINT SpineMid
  {
    OFFSET 0.000000 33.146004 0.000000
    CHANNELS 3 Zrotation Xrotation Yrotation
    JOINT SpineShoulder
    {
      OFFSET -0.016866 24.514431 -0.960536
      CHANNELS 3 Zrotation Xrotation Yrotation
      JOINT Neck
      {
        OFFSET -0.055744 8.101826 -0.708127
        CHANNELS 3 Zrotation Xrotation Yrotation
        JOINT Head
        {
          OFFSET -1.053299 9.174536 1.227671
          CHANNELS 3 Zrotation Xrotation Yrotation
          End Site
          {
            OFFSET 0 0 0
          }
        }
      }
      JOINT ShoulderLeft
      {
        OFFSET -15.241669 -3.726202 0.624257
        CHANNELS 3 Zrotation Xrotation Yrotation
        JOINT ElbowLeft
        {
          OFFSET -2.197582 -27.305965 6.154423
          CHANNELS 3 Zrotation Xrotation Yrotation
          JOINT WristLeft
          {
            OFFSET -2.723799 -20.354629 4.076322
            CHANNELS 3 Zrotation Xrotation Yrotation
            JOINT HandLeft
            {
              OFFSET 2.269134 -1.026243 4.435978
              CHANNELS 3 Zrotation Xrotation Yrotation
              JOINT HandTipLeft
              {
                OFFSET -0.558250 -2.551208 1.373845
                CHANNELS 3 Zrotation Xrotation Yrotation
                End Site
                {
                  OFFSET 0 0 0
                }
              }
              JOINT ThumbLeft
              {
                OFFSET 0.254980 1.840411 -1.729306
                CHANNELS 3 Zrotation Xrotation Yrotation
                End Site
                {
                  OFFSET 0 0 0
                }
              }
            }
          }
        }
      }
      JOINT ShoulderRight
      {
        OFFSET 10.555051 -4.612208 -9.992961
        CHANNELS 3 Zrotation Xrotation Yrotation
        JOINT ElbowRight
        {
          OFFSET 9.581669 -26.647876 -4.923158
          CHANNELS 3 Zrotation Xrotation Yrotation
          JOINT WristRight
          {
            OFFSET 6.664911 -28.795804 -1.674738
            CHANNELS 3 Zrotation Xrotation Yrotation
            JOINT HandRight
            {
              OFFSET -0.664361 -4.837565 0.098820
              CHANNELS 3 Zrotation Xrotation Yrotation
              JOINT HandTipRight
              {
                OFFSET -1.064166 -5.815882 -2.886049
                CHANNELS 3 Zrotation Xrotation Yrotation
                End Site
                {
                  OFFSET 0 0 0
                }
              }
              JOINT ThumbRight
              {
                OFFSET 1.941236 -0.375604 -5.561857
                CHANNELS 3 Zrotation Xrotation Yrotation
                End Site
                {
                  OFFSET 0 0 0
                }
              }
            }
          }
        }
      }
    }
  }
  JOINT HipLeft
  {
    OFFSET -6.711758 0.680701 -0.882603
    CHANNELS 3 Zrotation Xrotation Yrotation
    JOINT KneeLeft
    {
      OFFSET -2.664407 -35.600495 0.291331
      CHANNELS 3 Zrotation Xrotation Yrotation
      JOINT AnkleLeft
      {
        OFFSET -4.614710 -37.601941 -1.665366
        CHANNELS 3 Zrotation Xrotation Yrotation
        JOINT FootLeft
        {
          OFFSET -4.158436 -3.619256 -12.763419
          CHANNELS 3 Zrotation Xrotation Yrotation
          End Site
          {
            OFFSET 0 0 0
          }
        }
      }
    }
  }
  JOINT HipRight
  {
    OFFSET 6.156445 1.998485 -6.166446
    CHANNELS 3 Zrotation Xrotation Yrotation
    JOINT KneeRight
    {
      OFFSET 2.704789 -39.077531 -1.285258
      CHANNELS 3 Zrotation Xrotation Yrotation
      JOINT AnkleRight
      {
        OFFSET 3.361325 -35.689927 1.911162
        CHANNELS 3 Zrotation Xrotation Yrotation
        JOINT FootRight
        {
          OFFSET -4.455216 -3.614324 -12.729626
          CHANNELS 3 Zrotation Xrotation Yrotation
          End Site
          {
            OFFSET 0 0 0
          }
        }
      }
    }
  }
}
MOTION
Frames: 8
Frame Time: 0.033333
28.823463 78.923781 275.144932 -0.000000 0.000000 22.323657 -0.000000 0.000000 -22.323657 -0.000000 0.000000 0.000000 -0.000000 0.000000 0.000000 0.000000 0.000000 0.000000 -0.000000 0.000000 0.000000 -0.000000 0.000000 0.000000 -0.000000 0.000000 0.000000 -0.000000 0.000000 0.000000 0.000000 0.000000 0.000000 0.000000 0.000000 0.000000 -0.000000 0.000000 0.000000 -0.000000 0.000000 0.000000 -0.000000 0.000000 0.000000 -0.000000 0.000000 0.000000 0.000000 0.000000 0.000000 0.000000 0.000000 0.000000 -0.000000 0.000000 -22.323657 -0.000000 0.000000 0.000000 -0.000000 0.000000 0.000000 0.000000 0.000000 0.000000 -0.000000 0.000000 -22.323657 -0.000000 0.000000 0.000000 -0.000000 0.000000 0.000000 0.000000 0.000000 0.000000
28.621630 78.884969 275.197138 -0.172706 -0.229416 22.850791 0.248242 0.144342 -22.851449 -0.000000 0.000000 0.000000 -0.000000 0.000000 0.000000 0.000000 0.000000 0.000000 -0.000000 0.000000 0.000000 0.335848 -0.759396 0.170946 -6.551846 12.067046 -2.972773 2.621155 -2.838472 -0.302068 0.000000 0.000000 0.000000 0.000000 0.000000 0.000000 -0.000000 0.000000 0.000000 0.321201 -3.606738 -0.844622 6.632680 -5.448286 2.390826 -5.205577 -2.584636 0.462411 0.000000 0.000000 0.000000 0.000000 0.000000 0.000000 0.248242 0.144342 -22.851449 -0.000000 0.000000 0.000000 -0.000000 0.000000 0.000000 0.000000 0.000000 0.000000 0.248242 0.144342 -22.851449 -0.000000 0.000000 0.000000 -0.000000 0.000000 0.000000 0.000000 0.000000 0.000000
28.446526 78.844936 275.217103 -0.314105 -0.450444 23.282950 0.466578 0.289596 -23.285364 -0.000000 0.000000 0.000000 -0.000000 0.000000 0.000000 0.000000 0.000000 0.000000 -0.147581 -1.297461 0.069306 0.848428 -0.239945 0.266280 -12.551259 23.667673 -4.573664 7.416709 -8.128571 1.870832 0.000000 0.000000 0.000000 0.000000 0.000000 0.000000 0.638382 -0.886183 -0.431402 -0.003228 -6.311780 -1.234546 11.596675 -8.264539 4.337670 -8.535094 -5.620396 1.477703 0.000000 0.000000 0.000000 0.000000 0.000000 0.000000 0.466578 0.289596 -23.285364 -0.000000 0.000000 0.000000 -0.000000 0.000000 0.000000 0.000000 0.000000 0.000000 0.466578 0.289596 -23.285364 -0.000000 0.000000 0.000000 -0.000000 0.000000 0.000000 0.000000 0.000000 0.000000
28.298152 78.803681 275.204828 -0.424104 -0.662964 23.621187 0.654228 0.437460 -23.626138 -0.000000 0.000000 0.000000 1.089426 0.660461 -0.076095 0.000000 0.000000 0.000000 -0.279169 -1.839648 0.080357 1.373167 -0.494447 0.427787 -18.042530 33.831750 -4.925322 13.110198 -13.533705 5.698680 0.000000 0.000000 0.000000 0.000000 0.000000 0.000000 0.947396 -1.406483 -0.668675 -0.043087 -9.264338 -1.776434 15.027582 -9.199240 5.661537 -10.397703 -8.485708 2.515650 0.000000 0.000000 0.000000 0.000000 0.000000 0.000000 0.654228 0.437460 -23.626138 -0.000000 0.000000 0.000000 -0.000000 0.000000 0.000000 0.000000 0.000000 0.000000 0.654228 0.437460 -23.626138 -0.000000 0.000000 0.000000 -0.000000 0.000000 0.000000 0.000000 0.000000 0.000000
28.176507 78.761206 275.160312 -0.502644 -0.866868 23.866517 0.810441 0.589322 -23.874487 -0.000000 0.000000 0.000000 1.510191 1.313155 -0.068428 0.000000 0.000000 0.000000 -0.449756 -2.309666 0.075106 1.964204 -0.840845 0.609722 -23.162183 42.245754 -4.263673 19.212685 -18.060227 10.695783 0.000000 0.000000 0.000000 0.000000 0.000000 0.000000 1.249129 -1.978845 -0.920115 -0.108817 -11.939660 -2.240902 17.231776 -8.954620 6.438123 -11.254896 -10.905916 3.346192 0.000000 0.000000 0.000000 0.000000 0.000000 0.000000 0.810441 0.589322 -23.874487 -0.000000 0.000000 0.000000 -0.000000 0.000000 0.000000 0.000000 0.000000 0.000000 1.551177 0.025070 -23.923187 -0.905897 0.215418 0.046431 -0.000000 0.000000 0.000000 0.000000 0.000000 0.000000
28.081591 78.717510 275.083555 -0.549694 -1.062059 24.019896 0.400112 0.033811 -24.035790 0.197826 0.868319 0.006852 1.954315 2.171351 -0.049041 0.000000 0.000000 0.000000 -0.659548 -2.706814 0.053338 2.621437 -1.280359 0.813770 -28.062176 49.041494 -2.814813 25.648333 -21.447301 16.683283 0.000000 0.000000 0.000000 0.000000 0.000000 0.000000 1.543131 -2.603705 -1.185597 -0.197559 -14.235749 -2.607753 18.507029 -8.043753 6.824128 -11.438909 -12.829520 3.892955 0.000000 0.000000 0.000000 0.000000 0.000000 0.000000 0.934476 0.746259 -24.031077 0.884975 0.013237 -0.040961 -0.884966 -0.013868 0.040752 0.000000 0.000000 0.000000 1.836109 0.003249 -24.095530 -1.126388 0.310198 0.061604 -0.000000 0.000000 0.000000 0.000000 0.000000 0.000000
28.001514 78.643892 274.934737 -0.562469 -1.319703 24.112600 0.369219 -0.011469 -24.131742 -0.039087 0.130344 -0.019745 2.514514 5.262223 0.084809 0.000000 0.000000 0.000000 -0.691584 -2.325855 0.073496 3.570012 -1.838980 1.096012 -35.096925 56.971372 -0.140408 34.841967 -21.032821 26.900492 0.000000 0.000000 0.000000 0.000000 0.000000 0.000000 1.860670 -2.459836 -1.511692 0.432525 -16.098598 -2.857515 18.888912 -5.898973 6.811685 -10.681479 -13.380203 3.090590 0.000000 0.000000 0.000000 0.000000 0.000000 0.000000 1.052659 0.974652 -24.128032 0.990858 0.023926 -0.047078 -0.990838 -0.024737 0.046657 0.000000 0.000000 0.000000 2.035412 -0.013904 -24.213649 -1.301705 0.498556 0.083040 -0.000000 0.000000 0.000000 0.000000 0.000000 0.000000
27.989463 78.606940 274.742908 -0.502458 -1.511787 24.055835 0.308490 -0.035882 -24.074914 -0.059776 0.166198 -0.021649 2.992033 6.880392 0.116047 0.000000 0.000000 0.000000 -1.038972 -2.493909 0.021926 4.492315 -2.488645 1.379337 -42.129149 62.671792 3.795482 44.654057 -22.143651 38.134918 0.000000 0.000000 0.000000 0.000000 0.000000 0.000000 2.398249 -2.944358 -1.843710 -0.222207 -17.815492 -3.035726 18.891834 -4.353555 6.799093 -10.097999 -15.142757 3.532601 0.000000 0.000000 0.000000 0.000000 0.000000 0.000000 1.075252 1.175543 -24.073496 1.064738 0.024997 -0.050515 -1.064716 -0.025931 0.050042 0.000000 0.000000 0.000000 1.991919 -0.049805 -24.177965 -1.338105 0.742440 0.104134 -0.000000 0.000000 0.000000 0.000000 0.000000 0.000000
